<svg viewBox="0 0 48 48" fill="none" version="1.1" xmlns="http://www.w3.org/2000/svg" desc="Created with imagetracer.js version 1.2.6" >
  <path fill="rgb(0,0,0)" stroke="rgb(0,0,0)" stroke-width="1" opacity="0" d="M 0 0 L 48 0 L 48 48 L 0 48 L 0 0 Z M 23 3 L 19 5 L 10 14 L 9 21 L 22 29 Q 22 33 20 33 L 19 32 Q 18 28 15 29 Q 12 30 13 34 L 17 36 Q 15 37 16 42 L 20 44 L 27 42 L 36 33 L 37 30 L 36 25 Q 28 23 23 18 L 30 10 L 29 5 Q 28 2 23 3 Z M 29 12 L 27 14 Q 26 18 30 18 L 32 17 Q 34 18 33 14 Q 32 11 29 12 Z " />
  <path fill="rgb(42,194,238)" stroke="rgb(42,194,238)" stroke-width="1" opacity="0.8274509803921568" d="M 22.5 3 Q 27.8 1.8 29 4.5 L 30 9.5 L 22 16.5 L 24 13.5 Q 23 11 18.5 12 L 13.5 18 L 10.5 17 L 10 20.5 L 16 24.5 L 14.5 24 L 9 20.5 L 10 13.5 L 18.5 5 L 22.5 3 Z " />
  <path fill="rgb(42,194,238)" stroke="rgb(42,194,238)" stroke-width="1" opacity="0.8274509803921568" d="M 18.5 31 L 19 33.5 L 17 34.5 L 18.5 31 Z " />
  <path fill="rgb(33,71,218)" stroke="rgb(33,71,218)" stroke-width="1" opacity="0.9568627450980393" d="M 18.5 12 Q 23 11 24 13.5 L 22 16.5 L 25.5 21 L 28 22.5 L 25.5 23 L 19.5 26 L 10 20.5 L 10.5 17 L 13.5 18 L 18.5 12 Z " />
  <path fill="rgb(33,71,218)" stroke="rgb(33,71,218)" stroke-width="1" opacity="0.9568627450980393" d="M 14 30 Q 19.6 27.8 18 33.5 L 15.5 35 Q 11.3 33.2 14 31.5 L 14 30 Z " />
  <path fill="rgb(147,24,200)" stroke="rgb(147,24,200)" stroke-width="1" opacity="0.9333333333333333" d="M 26.5 22 L 30.5 24 L 36 27.5 L 35.5 30 L 31.5 27 L 27.5 35 L 20.5 40 L 17 40 Q 16 36.2 18.5 35 L 22 32.5 L 23 30.5 L 21.5 27 L 20 26.5 L 26.5 22 Z " />
  <path fill="rgb(233,66,201)" stroke="rgb(233,66,201)" stroke-width="1" opacity="0.7607843137254902" d="M 28.5 12 Q 32.3 11.3 33 13.5 Q 34.5 17.9 31.5 17 L 29.5 18 Q 26.5 17.5 27 13.5 L 28.5 12 Z " />
  <path fill="rgb(233,66,201)" stroke="rgb(233,66,201)" stroke-width="1" opacity="0.7607843137254902" d="M 29.5 22 L 36 25 L 37 29.5 L 36 32.5 L 26.5 42 L 19.5 44 L 16 41.5 L 16 36.5 L 22.5 30 L 22 31.5 L 19.5 35 L 17 36.5 Q 15.3 41.8 20.5 40 L 29 33.5 L 31.5 27 L 35.5 30 L 36 27.5 L 30.5 24 L 29.5 22 Z " />
  <path fill="rgb(233,66,201)" stroke="rgb(233,66,201)" stroke-width="1" opacity="0.7607843137254902" d="M 18.5 25 L 19.5 27 L 18.5 25 Z " />
  <path fill="rgb(233,66,201)" stroke="rgb(233,66,201)" stroke-width="1" opacity="0.7607843137254902" d="M 21.5 27 L 22.5 29 L 21.5 27 Z " />
  <path fill="rgb(233,66,201)" stroke="rgb(233,66,201)" stroke-width="1" opacity="0.7607843137254902" d="M 14.5 29 L 13.5 31 L 14.5 29 Z " />
</svg>
