<?xml version="1.0" standalone="no"?>
<!DOCTYPE svg PUBLIC "-//W3C//DTD SVG 20010904//EN"
 "http://www.w3.org/TR/2001/REC-SVG-20010904/DTD/svg10.dtd">
<svg version="1.0" xmlns="http://www.w3.org/2000/svg"
 width="500.000000pt" height="500.000000pt" viewBox="0 0 500.000000 500.000000"
 preserveAspectRatio="xMidYMid meet">

<g transform="translate(0.000000,500.000000) scale(0.100000,-0.100000)"
fill="#000000" stroke="none">
<path d="M2380 3929 c-328 -31 -623 -171 -860 -409 -202 -202 -331 -448 -381
-729 -29 -161 -23 -415 14 -571 124 -524 536 -923 1076 -1042 130 -29 405 -32
528 -5 577 124 1003 555 1104 1116 27 148 26 383 -2 521 -122 613 -620 1060
-1246 1120 -59 5 -117 9 -128 9 -11 -1 -58 -5 -105 -10z m405 -109 c147 -37
299 -125 402 -232 64 -67 151 -206 173 -277 24 -75 26 -177 6 -226 -31 -73
-119 -128 -206 -128 -95 0 -174 54 -205 140 -52 144 -114 227 -201 268 -146
69 -365 73 -498 10 -28 -13 -55 -21 -60 -18 -6 3 -8 3 -4 -1 9 -11 -23 -46
-35 -39 -6 3 -7 1 -4 -4 8 -12 -17 -36 -26 -26 -4 3 -1 13 6 22 11 14 10 14
-5 2 -14 -10 -15 -18 -7 -32 7 -15 6 -19 -6 -19 -8 0 -18 0 -22 -1 -4 0 -9 5
-11 13 -2 9 0 8 8 -2 10 -13 11 -13 7 0 -2 9 -13 14 -28 12 -15 -2 -32 5 -44
18 -10 11 -26 20 -36 20 -19 0 -54 64 -44 80 8 13 -6 41 -16 34 -13 -8 -40 16
-33 27 3 5 -3 17 -14 27 -24 20 -38 82 -19 83 9 0 9 2 -1 6 -6 2 -9 10 -6 15
4 7 2 8 -5 4 -6 -4 -9 -12 -6 -17 4 -5 1 -9 -5 -9 -6 0 -8 -5 -4 -12 4 -7 3
-8 -4 -4 -26 16 40 80 169 168 63 42 216 97 314 113 126 20 363 12 470 -15z
m-140 -1079 c-6 -5 -28 -6 -50 -1 l-40 8 50 1 c29 1 45 -3 40 -8z m80 -11 c4
-6 11 -8 16 -4 28 17 325 -107 353 -148 7 -10 15 -16 18 -13 2 3 17 -9 33 -25
16 -17 25 -30 21 -30 -5 0 -3 -7 4 -15 7 -8 16 -12 20 -10 12 8 63 -62 55 -75
-4 -6 -1 -9 6 -8 7 2 23 -12 36 -31 18 -26 20 -37 12 -48 -9 -11 -9 -12 4 -8
11 5 20 -8 36 -50 23 -62 26 -78 10 -55 -9 12 -10 11 -6 -7 3 -13 1 -26 -4
-29 -14 -8 -36 19 -44 54 -3 18 -11 29 -16 26 -6 -4 -6 -11 1 -19 7 -8 10 -22
7 -32 -4 -14 -5 -12 -6 5 0 14 -9 26 -19 28 -9 3 -25 19 -35 35 -9 17 -21 28
-26 25 -5 -3 -25 10 -45 29 -21 19 -41 35 -45 35 -3 0 -13 9 -21 20 -8 11 -22
20 -32 20 -10 0 -18 4 -18 9 0 5 -16 16 -35 25 -19 9 -51 32 -71 51 -20 19
-42 35 -48 35 -6 0 -18 13 -27 29 -10 17 -32 35 -53 42 -36 13 -52 41 -18 32
12 -3 19 1 19 10 0 9 -10 14 -30 13 -24 -1 -31 4 -33 22 -3 15 1 22 14 23 14
0 14 2 -3 9 -26 11 -44 12 -27 1 11 -6 10 -10 -4 -15 -10 -4 -15 -4 -11 0 4 4
2 13 -4 21 -9 10 -8 13 2 14 8 1 1 5 -16 9 l-30 8 27 1 c15 0 30 -4 33 -9z
m-122 -7 c-7 -2 -21 -2 -30 0 -10 3 -4 5 12 5 17 0 24 -2 18 -5z m67 -8 c8 -9
9 -15 2 -15 -6 0 -13 4 -17 10 -3 5 -13 7 -23 4 -14 -5 -15 -4 -2 5 20 14 25
14 40 -4z m520 -215 c0 -5 -2 -10 -4 -10 -3 0 -8 5 -11 10 -3 6 -1 10 4 10 6
0 11 -4 11 -10z m187 -392 c-3 -8 -6 -5 -6 6 -1 11 2 17 5 13 3 -3 4 -12 1
-19z m-10 -40 c-3 -8 -6 -5 -6 6 -1 11 2 17 5 13 3 -3 4 -12 1 -19z"/>
<path d="M1883 3583 c1 -18 4 -20 19 -12 16 9 17 29 2 29 -3 0 -2 -4 1 -10 3
-5 2 -10 -4 -10 -5 0 -11 6 -14 13 -3 6 -4 2 -4 -10z"/>
<path d="M3130 2471 c0 -10 19 -25 25 -20 1 2 -3 10 -11 17 -8 7 -14 8 -14 3z"/>
</g>
</svg>
